<svg xmlns="http://www.w3.org/2000/svg" viewBox="1067.2 750.1 325.9 145.4" width="100%" height="100%">
  <path d="M 1183.48 787.29 C 1183.41 787.42, 1183.35 787.56, 1183.28 787.70 L 1156.71 776.28 C 1156.77 776.12, 1156.83 775.96, 1156.89 775.80 C 1157.03 775.25, 1157.22 774.72, 1157.43 774.20 C 1159.60 768.84, 1164.86 765.06, 1170.99 765.06 C 1178.73 765.06, 1185.08 771.10, 1185.58 778.71 C 1185.60 779.04, 1185.61 779.36, 1185.61 779.69 C 1185.61 780.01, 1185.60 780.34, 1185.58 780.66 C 1185.50 781.94, 1185.25 783.17, 1184.85 784.34 Z" fill="rgb(31,184,114)" fill-rule="nonzero" />
  <path d="M 1185.58 778.71 L 1185.58 780.66 C 1185.50 781.94, 1185.25 783.17, 1184.85 784.34 C 1184.42 785.33, 1183.96 786.32, 1183.48 787.29 C 1183.41 787.42, 1183.35 787.56, 1183.28 787.70 C 1175.74 802.85, 1163.38 815.20, 1148.22 822.73 C 1148.19 822.74, 1148.17 822.75, 1148.14 822.76 C 1141.55 826.02, 1134.44 828.38, 1126.97 829.65 C 1126.93 829.66, 1126.90 829.66, 1126.87 829.67 C 1126.68 829.70, 1126.50 829.73, 1126.31 829.76 C 1126.30 829.76, 1126.29 829.77, 1126.27 829.77 C 1122.24 830.42, 1118.10 830.76, 1113.89 830.76 C 1112.48 830.76, 1111.08 830.72, 1109.69 830.64 C 1109.67 830.64, 1109.65 830.64, 1109.62 830.64 C 1104.98 830.38, 1100.45 829.73, 1096.07 828.69 C 1096.06 828.69, 1096.04 828.68, 1096.03 828.68 C 1094.39 828.29, 1092.77 827.85, 1091.17 827.36 C 1093.34 827.15, 1095.50 826.85, 1097.64 826.47 C 1097.66 826.46, 1097.67 826.46, 1097.69 826.45 C 1102.73 825.54, 1107.67 824.12, 1112.45 822.20 C 1112.48 822.19, 1112.51 822.18, 1112.54 822.16 C 1112.92 822.01, 1113.31 821.85, 1113.69 821.69 C 1113.72 821.68, 1113.75 821.67, 1113.77 821.66 C 1113.81 821.64, 1113.84 821.63, 1113.88 821.62 C 1117.89 819.92, 1121.78 817.87, 1125.47 815.51 C 1125.49 815.49, 1125.51 815.48, 1125.53 815.47 C 1125.68 815.37, 1125.83 815.27, 1125.98 815.18 C 1125.99 815.17, 1126.01 815.16, 1126.02 815.15 C 1126.36 814.92, 1126.70 814.70, 1127.04 814.47 C 1131.15 811.70, 1135.00 808.51, 1138.51 805.01 C 1142.02 801.50, 1145.20 797.64, 1147.97 793.54 C 1150.77 789.40, 1153.18 784.97, 1155.12 780.38 C 1155.69 779.02, 1156.23 777.65, 1156.71 776.28 C 1156.77 776.12, 1156.83 775.96, 1156.89 775.80 C 1157.07 775.27, 1157.25 774.73, 1157.43 774.20 C 1159.60 768.84, 1164.86 765.06, 1170.99 765.06 C 1178.73 765.06, 1185.08 771.10, 1185.58 778.71" fill="rgb(2,235,105)" fill-rule="nonzero" />
  <path d="M 1185.58 866.38 C 1185.58 874.13, 1179.28 880.44, 1171.53 880.44 L 1170.43 880.44 C 1167.08 880.18, 1163.96 878.75, 1161.56 876.35 C 1160.17 874.96, 1159.10 873.33, 1158.40 871.56 C 1158.40 871.55, 1158.40 871.55, 1158.40 871.54 C 1158.22 870.97, 1158.04 870.39, 1157.85 869.82 C 1157.85 869.82, 1157.85 869.81, 1157.84 869.81 C 1157.21 867.92, 1156.51 866.04, 1155.72 864.20 C 1153.78 859.60, 1151.37 855.18, 1148.57 851.03 C 1145.80 846.93, 1142.62 843.07, 1139.12 839.56 C 1137.70 838.15, 1136.22 836.78, 1134.69 835.48 L 1134.69 835.47 C 1134.54 835.34, 1134.38 835.21, 1134.23 835.08 C 1134.02 834.82, 1133.91 834.51, 1133.91 834.17 C 1133.91 833.56, 1134.28 833.04, 1134.80 832.81 C 1134.98 832.77, 1135.16 832.72, 1135.33 832.68 C 1139.34 831.71, 1143.27 830.40, 1147.10 828.79 C 1148.55 828.17, 1149.98 827.52, 1151.38 826.81 C 1151.39 826.81, 1151.40 826.80, 1151.40 826.80 C 1151.68 826.66, 1151.96 826.52, 1152.24 826.38 L 1152.25 826.38 C 1152.60 826.26, 1152.98 826.20, 1153.38 826.20 C 1153.83 826.20, 1154.27 826.28, 1154.67 826.44 C 1154.75 826.49, 1154.82 826.53, 1154.89 826.58 C 1154.90 826.59, 1154.91 826.59, 1154.92 826.60 C 1155.15 826.74, 1155.37 826.88, 1155.59 827.03 C 1155.67 827.08, 1155.74 827.12, 1155.80 827.16 C 1167.86 835.05, 1177.60 846.19, 1183.75 859.34 C 1183.75 859.34, 1183.75 859.34, 1183.75 859.34 C 1183.84 859.55, 1183.94 859.75, 1184.03 859.96 C 1184.03 859.97, 1184.04 859.98, 1184.04 859.98 C 1184.25 860.45, 1184.46 860.91, 1184.66 861.38 C 1184.67 861.40, 1184.68 861.41, 1184.68 861.43 C 1185.26 862.97, 1185.58 864.64, 1185.58 866.38" fill="rgb(2,235,105)" fill-rule="nonzero" />
  <path d="M 1125.58 835.86 C 1125.56 835.94, 1125.55 836.02, 1125.54 836.09 L 1125.54 836.10 C 1125.53 836.19, 1125.51 836.29, 1125.49 836.38 C 1125.49 836.46, 1125.47 836.53, 1125.46 836.61 C 1123.11 850.93, 1116.82 863.94, 1107.74 874.48 C 1107.62 874.62, 1107.51 874.75, 1107.40 874.88 L 1107.39 874.88 C 1106.80 875.56, 1106.20 876.23, 1105.58 876.89 C 1105.57 876.90, 1105.57 876.91, 1105.56 876.92 C 1103.22 879.03, 1100.15 880.35, 1096.77 880.44 L 1096.07 880.44 C 1089.11 880.26, 1083.43 874.85, 1082.84 868.00 L 1082.84 865.19 C 1083.19 862.15, 1084.55 859.34, 1086.75 857.14 C 1086.97 856.91, 1087.21 856.69, 1087.45 856.49 C 1087.45 856.48, 1087.46 856.48, 1087.46 856.48 C 1087.95 856.11, 1088.44 855.74, 1088.92 855.37 L 1088.93 855.36 C 1091.43 853.41, 1093.81 851.30, 1096.05 849.06 C 1099.56 845.55, 1102.74 841.70, 1105.51 837.59 C 1105.76 837.23, 1106.00 836.87, 1106.24 836.50 C 1106.24 836.49, 1106.24 836.49, 1106.25 836.48 C 1106.39 836.25, 1106.55 836.03, 1106.69 835.79 C 1106.69 835.79, 1106.69 835.79, 1106.70 835.79 C 1107.31 835.04, 1108.22 834.55, 1109.24 834.50 C 1109.41 834.51, 1109.58 834.53, 1109.74 834.55 C 1109.76 834.55, 1109.77 834.55, 1109.78 834.55 C 1109.93 834.56, 1110.08 834.58, 1110.23 834.59 L 1110.25 834.59 C 1112.46 834.78, 1114.69 834.87, 1116.94 834.87 C 1119.19 834.87, 1121.42 834.78, 1123.63 834.59 L 1123.64 834.59 C 1123.85 834.57, 1124.07 834.55, 1124.28 834.53 C 1124.97 834.61, 1125.51 835.17, 1125.58 835.86" fill="rgb(2,235,105)" fill-rule="nonzero" />
  <path d="M 1111.95 789.45 C 1111.95 789.60, 1111.95 789.74, 1111.94 789.89 C 1111.88 791.51, 1111.35 793.08, 1110.39 794.44 C 1109.08 796.31, 1107.11 797.56, 1104.87 797.96 C 1104.65 798.00, 1104.43 798.02, 1104.22 798.04 C 1103.68 798.10, 1103.15 798.10, 1102.63 798.05 C 1102.48 798.03, 1102.33 798.00, 1102.18 797.96 C 1101.61 797.84, 1101.04 797.70, 1100.48 797.54 C 1100.34 797.50, 1100.21 797.46, 1100.08 797.42 C 1095.74 796.16, 1091.76 793.95, 1088.39 791.00 C 1088.22 790.86, 1088.06 790.71, 1087.89 790.56 C 1087.16 789.89, 1086.46 789.18, 1085.79 788.44 C 1085.78 788.42, 1085.76 788.41, 1085.75 788.39 C 1084.30 786.57, 1083.28 784.38, 1082.85 781.94 C 1082.18 778.15, 1083.04 774.34, 1085.24 771.19 C 1086.11 769.95, 1087.15 768.87, 1088.32 767.99 C 1089.10 767.39, 1089.94 766.88, 1090.82 766.46 C 1090.88 766.44, 1090.93 766.41, 1090.97 766.39 C 1092.09 765.88, 1093.29 765.50, 1094.53 765.28 C 1094.89 765.22, 1095.25 765.17, 1095.61 765.13 C 1096.31 765.06, 1097.00 765.04, 1097.69 765.08 C 1097.74 765.08, 1097.79 765.08, 1097.84 765.08 L 1097.84 765.09 C 1100.49 765.23, 1103.05 766.11, 1105.28 767.67 C 1108.08 769.64, 1110.06 772.48, 1110.92 775.76 L 1110.92 775.77 C 1110.98 776.11, 1111.03 776.45, 1111.09 776.80 C 1111.09 776.84, 1111.10 776.89, 1111.10 776.93 C 1111.21 777.64, 1111.31 778.35, 1111.40 779.07 C 1111.40 779.08, 1111.40 779.09, 1111.40 779.10 C 1111.41 779.21, 1111.43 779.34, 1111.44 779.46 C 1111.45 779.46, 1111.45 779.47, 1111.44 779.47 C 1111.82 782.76, 1112.00 786.10, 1111.95 789.45" fill="rgb(178,240,0)" fill-rule="nonzero" />
  <path d="M 1246.03 816.13 C 1246.03 816.06, 1246.03 816.03, 1246.02 815.95 C 1254.10 809.68, 1259.32 800.31, 1259.32 789.87 L 1259.32 785.77 C 1259.32 785.71, 1259.27 785.66, 1259.20 785.66 L 1243.62 785.66 C 1243.55 785.66, 1243.49 785.71, 1243.49 785.77 L 1243.49 789.76 C 1243.49 800.54, 1233.94 809.36, 1222.26 809.36 C 1221.79 809.36, 1221.40 809.00, 1221.40 808.56 L 1221.40 785.77 C 1221.40 785.71, 1221.35 785.66, 1221.28 785.66 L 1205.69 785.66 C 1205.62 785.66, 1205.56 785.71, 1205.56 785.77 L 1205.56 847.47 C 1205.56 847.54, 1205.62 847.59, 1205.69 847.59 L 1221.28 847.59 C 1221.35 847.59, 1221.40 847.54, 1221.40 847.47 L 1221.40 824.00 C 1221.40 823.93, 1221.46 823.89, 1221.52 823.89 L 1223.78 823.89 C 1235.46 823.89, 1245.01 832.71, 1245.01 843.49 L 1245.01 847.47 C 1245.01 847.54, 1245.07 847.59, 1245.14 847.59 L 1260.72 847.59 C 1260.79 847.59, 1260.84 847.54, 1260.84 847.47 L 1260.84 843.37 C 1260.84 832.27, 1255.08 822.33, 1246.03 816.13" fill="rgb(2,235,105)" fill-rule="nonzero" />
  <path d="M 1321.84 800.23 L 1321.84 785.62 L 1268.10 785.62 L 1268.10 823.83 L 1306.02 823.83 L 1306.02 827.22 C 1306.02 830.36, 1303.24 832.92, 1299.94 832.92 L 1268.10 832.92 L 1268.10 847.53 L 1299.94 847.53 C 1312.01 847.53, 1321.84 838.45, 1321.84 827.22 L 1321.84 809.31 L 1283.93 809.31 L 1283.93 800.23 Z" fill="rgb(2,235,105)" fill-rule="nonzero" />
  <path d="M 1346.47 832.96 L 1378.05 832.96 L 1378.05 847.58 L 1330.63 847.58 L 1330.63 785.63 L 1346.47 785.63 Z" fill="rgb(2,235,105)" fill-rule="nonzero" />
  <path d="M 1211.01 855.87 C 1211.01 855.86, 1211.01 855.86, 1211.01 855.85 C 1212.10 855.07, 1212.80 853.90, 1212.80 852.60 L 1212.80 852.08 C 1212.80 852.08, 1212.80 852.07, 1212.79 852.07 L 1210.69 852.07 C 1210.68 852.07, 1210.67 852.08, 1210.67 852.08 L 1210.67 852.58 C 1210.67 853.93, 1209.38 855.03, 1207.81 855.03 C 1207.75 855.03, 1207.70 854.98, 1207.70 854.93 L 1207.70 852.08 C 1207.70 852.08, 1207.69 852.07, 1207.68 852.07 L 1205.58 852.07 C 1205.57 852.07, 1205.56 852.08, 1205.56 852.08 L 1205.56 859.79 C 1205.56 859.79, 1205.57 859.80, 1205.58 859.80 L 1207.68 859.80 C 1207.69 859.80, 1207.70 859.79, 1207.70 859.79 L 1207.70 856.86 C 1207.70 856.85, 1207.70 856.84, 1207.71 856.84 L 1208.02 856.84 C 1209.59 856.84, 1210.88 857.94, 1210.88 859.29 L 1210.88 859.79 C 1210.88 859.79, 1210.88 859.80, 1210.89 859.80 L 1212.99 859.80 C 1213.00 859.80, 1213.01 859.79, 1213.01 859.79 L 1213.01 859.27 C 1213.01 857.89, 1212.23 856.65, 1211.01 855.87" fill="rgb(178,240,0)" fill-rule="nonzero" />
  <path d="M 1229.85 853.89 L 1229.85 852.07 L 1222.63 852.07 L 1222.63 856.83 L 1227.72 856.83 L 1227.72 857.25 C 1227.72 857.64, 1227.35 857.96, 1226.91 857.96 L 1222.63 857.96 L 1222.63 859.78 L 1226.91 859.78 C 1228.53 859.78, 1229.85 858.65, 1229.85 857.25 L 1229.85 855.02 L 1224.76 855.02 L 1224.76 853.89 Z" fill="rgb(178,240,0)" fill-rule="nonzero" />
  <path d="M 1238.47 852.53 L 1238.47 859.32 L 1238.47 859.32 L 1238.47 859.78 L 1237.85 859.78 L 1237.86 859.78 L 1236.81 859.78 L 1236.81 859.78 L 1236.44 859.78 L 1236.44 859.32 L 1236.44 859.32 L 1236.44 856.60 L 1232.82 856.60 L 1232.82 859.32 L 1232.83 859.32 L 1232.83 859.78 L 1232.22 859.78 L 1232.22 859.78 L 1231.41 859.78 L 1231.41 859.78 L 1230.80 859.78 L 1230.80 852.39 C 1230.80 852.38, 1230.80 852.38, 1230.80 852.37 L 1230.80 852.07 L 1232.83 852.07 L 1232.83 852.54 L 1232.82 852.53 L 1232.82 855.16 L 1236.44 855.16 L 1236.44 852.07 L 1238.47 852.07 L 1238.47 852.54 Z" fill="rgb(178,240,0)" fill-rule="nonzero" />
  <path d="M 1248.90 852.08 L 1248.90 859.77 L 1246.93 859.77 L 1246.93 859.31 L 1246.93 859.31 L 1246.93 854.07 L 1245.14 858.63 C 1245.07 858.82, 1244.86 858.94, 1244.61 858.94 L 1243.71 858.94 C 1243.47 858.94, 1243.25 858.82, 1243.18 858.63 L 1241.39 854.07 L 1241.39 859.31 L 1241.39 859.31 L 1241.39 859.77 L 1239.42 859.77 L 1239.42 852.08 L 1240.03 852.08 L 1240.03 852.08 L 1241.35 852.08 C 1242.14 852.08, 1242.84 852.50, 1243.08 853.13 L 1244.16 856.57 L 1245.24 853.12 C 1245.48 852.50, 1246.18 852.08, 1246.98 852.08 L 1248.29 852.08 L 1248.29 852.08 Z" fill="rgb(178,240,0)" fill-rule="nonzero" />
  <path d="M 1249.85 852.07 h 2.03 v 7.71 h -2.03 Z" fill="rgb(178,240,0)" fill-rule="evenodd" />
  <path d="M 1258.08 854.30 C 1257.90 854.84, 1257.33 855.20, 1256.68 855.20 L 1254.86 855.20 L 1254.86 853.81 L 1257.64 853.81 C 1257.94 853.81, 1258.17 854.05, 1258.08 854.30 M 1260.19 859.40 C 1260.15 858.51, 1259.70 857.30, 1258.74 856.45 L 1258.58 856.30 L 1258.78 856.19 C 1259.68 855.68, 1260.17 854.88, 1260.17 853.95 C 1260.17 852.92, 1259.23 852.08, 1258.08 852.08 L 1253.44 852.07 L 1252.83 852.07 L 1252.83 852.28 C 1252.83 852.28, 1252.83 852.29, 1252.83 852.30 L 1252.83 859.78 L 1254.86 859.78 L 1254.86 856.71 L 1255.83 856.71 C 1257.31 856.84, 1258.07 858.22, 1258.16 859.54 L 1258.16 859.78 L 1258.40 859.78 C 1258.41 859.78, 1258.42 859.78, 1258.43 859.78 L 1259.92 859.78 C 1259.93 859.78, 1259.94 859.78, 1259.95 859.78 L 1260.19 859.78 L 1260.19 859.51 C 1260.19 859.48, 1260.19 859.44, 1260.19 859.40" fill="rgb(178,240,0)" fill-rule="nonzero" />
  <path d="M 1219.65 855.26 L 1215.99 855.26 L 1216.00 853.82 C 1219.54 853.82, 1219.65 853.92, 1219.65 854.10 Z M 1221.68 854.16 C 1221.68 852.63, 1220.44 852.09, 1219.28 852.09 L 1213.95 852.06 L 1213.95 859.79 L 1215.99 859.79 L 1215.99 856.70 L 1219.65 856.70 L 1219.65 859.79 L 1221.68 859.79 L 1221.68 855.93 L 1221.68 855.93 C 1221.68 855.12, 1221.68 854.42, 1221.68 854.16" fill="rgb(178,240,0)" fill-rule="nonzero" />
  <path d="M 1272.66 853.88 L 1272.66 852.06 L 1265.44 852.06 L 1265.44 856.82 L 1270.53 856.82 L 1270.53 857.24 C 1270.53 857.63, 1270.16 857.95, 1269.71 857.95 L 1265.44 857.95 L 1265.44 859.77 L 1269.71 859.77 C 1271.34 859.77, 1272.66 858.64, 1272.66 857.24 L 1272.66 855.01 L 1267.56 855.01 L 1267.56 853.88 Z" fill="rgb(178,240,0)" fill-rule="nonzero" />
  <path d="M 1315.97 852.11 L 1315.97 859.80 L 1313.99 859.80 L 1313.99 859.33 L 1313.99 859.34 L 1313.99 854.10 L 1312.21 858.66 C 1312.14 858.84, 1311.92 858.97, 1311.68 858.97 L 1310.77 858.97 C 1310.53 858.97, 1310.32 858.84, 1310.24 858.65 L 1308.46 854.10 L 1308.46 859.34 L 1308.46 859.33 L 1308.46 859.80 L 1306.48 859.80 L 1306.48 852.11 L 1307.09 852.11 L 1307.09 852.11 L 1308.41 852.11 C 1309.21 852.11, 1309.91 852.53, 1310.15 853.15 L 1311.22 856.60 L 1312.30 853.15 C 1312.55 852.53, 1313.24 852.11, 1314.04 852.11 L 1315.36 852.11 L 1315.36 852.11 Z" fill="rgb(178,240,0)" fill-rule="nonzero" />
  <path d="M 1295.30 854.32 C 1295.12 854.86, 1294.55 855.22, 1293.89 855.22 L 1292.07 855.22 L 1292.07 853.83 L 1294.86 853.83 C 1295.15 853.83, 1295.38 854.07, 1295.30 854.32 M 1297.40 859.42 C 1297.37 858.53, 1296.92 857.32, 1295.96 856.47 L 1295.79 856.32 L 1295.99 856.20 C 1296.89 855.69, 1297.39 854.90, 1297.39 853.97 C 1297.39 852.94, 1296.45 852.10, 1295.30 852.10 L 1290.66 852.09 L 1290.05 852.09 L 1290.05 852.29 C 1290.04 852.30, 1290.04 852.31, 1290.04 852.32 L 1290.04 859.80 L 1292.07 859.80 L 1292.07 856.73 L 1293.05 856.73 C 1294.53 856.86, 1295.28 858.24, 1295.38 859.56 L 1295.38 859.80 L 1295.61 859.80 C 1295.62 859.80, 1295.63 859.80, 1295.65 859.80 L 1297.14 859.80 C 1297.15 859.80, 1297.16 859.80, 1297.17 859.80 L 1297.41 859.80 L 1297.41 859.53 C 1297.41 859.50, 1297.41 859.46, 1297.40 859.42" fill="rgb(178,240,0)" fill-rule="nonzero" />
  <path d="M 1280.92 857.42 C 1280.90 858.81, 1279.58 859.86, 1277.85 859.86 L 1276.68 859.86 C 1274.98 859.86, 1273.60 858.76, 1273.60 857.42 L 1273.60 852.07 L 1275.63 852.07 L 1275.63 852.36 C 1275.63 852.36, 1275.63 852.37, 1275.63 852.37 L 1275.63 857.42 C 1275.63 857.80, 1276.11 858.12, 1276.68 858.12 C 1278.36 858.12, 1278.90 857.92, 1278.89 857.37 C 1278.89 856.52, 1278.88 853.76, 1278.88 852.63 L 1278.88 852.07 L 1280.91 852.07 L 1280.91 852.37 C 1280.91 852.78, 1280.93 856.42, 1280.92 857.42" fill="rgb(178,240,0)" fill-rule="nonzero" />
  <path d="M 1287.02 854.28 C 1286.84 854.83, 1286.26 855.20, 1285.61 855.20 L 1283.90 855.20 L 1283.90 853.81 L 1286.59 853.81 C 1286.87 853.81, 1287.09 854.04, 1287.02 854.28 M 1287.01 852.08 L 1282.78 852.07 L 1281.87 852.07 L 1281.87 859.78 L 1283.90 859.78 L 1283.90 856.71 L 1285.61 856.71 C 1287.60 856.71, 1289.10 855.52, 1289.10 853.95 C 1289.10 852.92, 1288.16 852.08, 1287.01 852.08" fill="rgb(178,240,0)" fill-rule="nonzero" />
  <path d="M 1305.53 858.07 L 1305.53 859.80 L 1298.35 859.80 L 1298.35 852.11 L 1299.44 852.11 L 1299.44 852.11 L 1305.46 852.11 L 1305.46 853.85 L 1300.58 853.85 C 1300.47 853.85, 1300.38 853.92, 1300.38 854.01 L 1300.38 855.18 L 1303.45 855.18 L 1303.45 856.56 C 1303.45 856.59, 1303.42 856.62, 1303.39 856.62 C 1303.39 856.62, 1303.38 856.62, 1303.38 856.62 L 1300.38 856.62 L 1300.38 857.92 C 1300.38 858.00, 1300.46 858.07, 1300.55 858.07 Z" fill="rgb(178,240,0)" fill-rule="nonzero" />
  <path d="M 1324.09 858.07 L 1324.09 859.80 L 1316.92 859.80 L 1316.92 852.11 L 1324.02 852.11 L 1324.02 853.85 L 1319.14 853.85 C 1319.03 853.85, 1318.94 853.92, 1318.94 854.01 L 1318.94 855.18 L 1322.01 855.18 L 1322.01 856.56 C 1322.01 856.59, 1321.98 856.62, 1321.95 856.62 C 1321.95 856.62, 1321.94 856.62, 1321.94 856.62 L 1318.94 856.62 L 1318.94 857.92 C 1318.94 858.00, 1319.02 858.07, 1319.11 858.07 Z" fill="rgb(178,240,0)" fill-rule="nonzero" />
  <path d="M 1369.93 857.42 C 1369.91 858.81, 1368.59 859.86, 1366.86 859.86 L 1365.68 859.86 C 1363.99 859.86, 1362.61 858.77, 1362.61 857.43 L 1362.61 852.08 L 1364.64 852.08 L 1364.64 852.37 C 1364.64 852.37, 1364.64 852.37, 1364.64 852.38 L 1364.64 857.43 C 1364.64 857.81, 1365.12 858.13, 1365.68 858.13 C 1367.36 858.12, 1367.91 857.93, 1367.90 857.38 C 1367.90 856.53, 1367.89 853.77, 1367.89 852.63 L 1367.89 852.08 L 1369.92 852.08 L 1369.92 852.37 C 1369.92 852.79, 1369.94 856.43, 1369.93 857.42" fill="rgb(178,240,0)" fill-rule="nonzero" />
  <path d="M 1361.66 855.25 L 1361.66 855.83 C 1361.66 858.09, 1361.44 859.87, 1358.57 859.87 L 1357.32 859.87 C 1355.59 859.87, 1354.18 858.82, 1354.18 857.53 L 1354.18 854.41 C 1354.18 853.12, 1355.59 852.07, 1357.32 852.07 L 1358.52 852.07 C 1360.41 852.07, 1361.57 852.83, 1361.63 854.10 C 1361.63 854.13, 1361.63 854.16, 1361.62 854.19 L 1361.62 854.47 L 1359.61 854.47 L 1359.61 854.30 C 1359.59 853.84, 1359.28 853.80, 1358.91 853.80 L 1357.32 853.80 C 1357.02 853.80, 1356.21 853.80, 1356.21 854.63 L 1356.21 857.30 C 1356.21 858.13, 1357.04 858.13, 1357.32 858.13 L 1358.57 858.14 L 1358.74 858.14 C 1359.54 858.14, 1359.64 857.91, 1359.64 857.11 C 1359.64 856.93, 1359.48 856.79, 1359.27 856.79 L 1357.80 856.79 L 1357.80 855.54 C 1357.80 855.53, 1357.80 855.52, 1357.80 855.50 L 1357.80 855.25 Z" fill="rgb(178,240,0)" fill-rule="nonzero" />
  <path d="M 1351.21 855.27 L 1347.55 855.27 L 1347.56 853.83 C 1351.09 853.83, 1351.21 853.93, 1351.21 854.11 Z M 1353.23 854.17 C 1353.23 852.64, 1352.00 852.09, 1350.84 852.09 L 1345.51 852.07 L 1345.51 859.80 L 1347.55 859.80 L 1347.55 856.71 L 1351.20 856.71 L 1351.20 859.80 L 1353.23 859.80 L 1353.23 855.94 L 1353.23 855.94 C 1353.23 855.13, 1353.23 854.43, 1353.23 854.17" fill="rgb(178,240,0)" fill-rule="nonzero" />
  <path d="M 1344.56 858.08 L 1344.56 859.81 L 1337.39 859.81 L 1337.39 852.12 L 1338.48 852.12 L 1338.48 852.12 L 1344.49 852.12 L 1344.49 853.86 L 1339.61 853.86 C 1339.50 853.86, 1339.42 853.93, 1339.42 854.02 L 1339.42 855.19 L 1342.48 855.19 L 1342.48 856.57 C 1342.48 856.60, 1342.46 856.63, 1342.43 856.63 C 1342.42 856.63, 1342.42 856.63, 1342.41 856.63 L 1339.42 856.63 L 1339.42 857.94 C 1339.42 858.01, 1339.49 858.08, 1339.58 858.08 Z" fill="rgb(178,240,0)" fill-rule="nonzero" />
  <path d="M 1378.05 858.03 L 1378.05 859.76 L 1370.88 859.76 L 1370.88 852.07 L 1371.97 852.07 L 1371.97 852.08 L 1377.99 852.08 L 1377.99 853.81 L 1373.11 853.81 C 1372.99 853.81, 1372.91 853.89, 1372.91 853.98 L 1372.91 855.15 L 1375.98 855.15 L 1375.98 856.53 C 1375.98 856.56, 1375.95 856.58, 1375.92 856.59 C 1375.91 856.59, 1375.91 856.59, 1375.90 856.59 L 1372.91 856.59 L 1372.91 857.89 C 1372.91 857.97, 1372.98 858.03, 1373.07 858.03 Z" fill="rgb(178,240,0)" fill-rule="nonzero" />
  <path d="M 1332.52 858.04 L 1336.14 858.04 L 1336.14 859.85 L 1330.71 859.85 L 1330.71 852.17 L 1332.52 852.17 Z" fill="rgb(178,240,0)" fill-rule="nonzero" />
  <path d="M 1330.71 852.12 h 2.02 v 7.73 h -2.02 Z" fill="rgb(178,240,0)" fill-rule="evenodd" />
</svg>